<svg width="160" height="92" fill="none" xmlns="http://www.w3.org/2000/svg"><path d="M5.996 69.71L.914 86.387h3.897l1.185-4.292h4.785l1.283 4.243h4.045L10.93 69.71H5.996zm.542 9.572l1.036-3.552c.099-.395.346-1.48.74-3.207h.05c0 .099.148.543.345 1.381.197.84.345 1.431.444 1.826l1.036 3.552h-3.65zm19.194-.594h-3.799v-4.391h-3.75v12.087h3.75v-4.786h3.799v4.786h3.75V74.297h-3.75v4.39zm16.918 4.094c-.79-1.973-1.776-3.108-3.01-3.305l4.44-5.18h-4.39l-3.06 4.835h-.394v-4.835h-3.798v12.038h3.749v-4.786h.395c1.134 0 1.973.69 2.516 2.121.296.914.658 1.804 1.085 2.665h3.947a18.054 18.054 0 01-.888-2.023c-.346-.888-.543-1.43-.592-1.53zm8.488-8.73c-1.924 0-3.503.543-4.687 1.727a6.172 6.172 0 00-1.776 4.637 5.945 5.945 0 001.776 4.54 6.184 6.184 0 004.49 1.677 6.414 6.414 0 004.49-1.629c1.233-1.134 1.874-2.713 1.874-4.785a5.92 5.92 0 00-6.167-6.167zm1.628 8.88a2.087 2.087 0 01-1.776.987 2.107 2.107 0 01-1.825-.986 4.78 4.78 0 01-.642-2.615c-.01-.896.21-1.78.642-2.566a2.072 2.072 0 011.874-1.036 1.92 1.92 0 011.776 1.036 5.31 5.31 0 01.592 2.566 4.563 4.563 0 01-.64 2.615zm14.207-8.98a4.692 4.692 0 00-3.996 1.974h-.05l-.148-1.678h-3.256c.05 1.53.1 2.862.1 4.046V91.17h3.748v-6.019h.05c.641.938 1.677 1.382 3.108 1.382a5.127 5.127 0 003.848-1.678c1.085-1.134 1.628-2.713 1.628-4.785a6.522 6.522 0 00-1.48-4.44 4.529 4.529 0 00-3.552-1.678zm.493 8.831a2.146 2.146 0 01-1.874.938 2.067 2.067 0 01-1.382-.494 2.684 2.684 0 01-.79-1.282 3.988 3.988 0 01-.049-.79v-2.319a2.354 2.354 0 01.84-1.38 2.249 2.249 0 011.43-.544 2.146 2.146 0 011.875.938c.437.747.66 1.6.641 2.467a4.174 4.174 0 01-.69 2.466zm16.924-3.552c0-1.579-.395-2.861-1.381-3.799-.839-.937-2.171-1.43-4.046-1.43a9.28 9.28 0 00-4.686 1.085l.69 2.368a6.56 6.56 0 013.355-.888c1.48 0 2.22.543 2.22 1.579v.148c-2.17 0-3.947.345-5.18 1.135a3.853 3.853 0 00-1.875 3.453 3.694 3.694 0 001.086 2.615 3.645 3.645 0 002.812 1.085 4.203 4.203 0 003.453-1.48h.099l.246 1.233h3.404a13.886 13.886 0 01-.197-2.91V79.23zm-3.601 2.714c0 .246-.05.444-.05.69-.142.396-.4.74-.74.987a2.284 2.284 0 01-1.233.395 1.366 1.366 0 01-1.48-1.48c0-1.234 1.184-1.875 3.503-1.875v1.282zm23.239-12.235H91.25v3.158h4.49v13.469h3.749V72.868h4.539v-3.157zm7.343 4.242a4.692 4.692 0 00-3.996 1.974h-.049l-.148-1.678h-3.256c.049 1.53.099 2.862.099 4.046V91.17h3.749v-6.019h.049c.642.938 1.678 1.382 3.108 1.382a5.125 5.125 0 003.848-1.678c1.086-1.134 1.629-2.713 1.629-4.785a6.521 6.521 0 00-1.481-4.44 4.524 4.524 0 00-3.552-1.678zm.494 8.831a2.152 2.152 0 01-1.875.938 2.066 2.066 0 01-1.381-.494 2.692 2.692 0 01-.79-1.282 4.01 4.01 0 01-.049-.79v-1.628a3.19 3.19 0 000-.69 2.354 2.354 0 01.839-1.382 2.249 2.249 0 011.43-.543 2.146 2.146 0 011.875.938c.438.747.66 1.6.641 2.467a4.174 4.174 0 01-.69 2.466zm12.336-8.731a5.58 5.58 0 00-4.489 1.973 7.023 7.023 0 00-1.579 4.49c0 1.874.543 3.403 1.677 4.489 1.135 1.085 2.714 1.628 4.737 1.628a11.589 11.589 0 004.341-.74l-.493-2.566c-1.085.344-2.218.51-3.355.494a4.44 4.44 0 01-2.368-.592 2.173 2.173 0 01-1.036-1.727h7.795c.1-.47.15-.95.148-1.43a6.954 6.954 0 00-1.332-4.293c-.888-1.135-2.22-1.727-4.046-1.727zm-2.565 4.884a3.498 3.498 0 01.641-1.678 2.004 2.004 0 011.677-.74 1.793 1.793 0 011.629.74c.332.496.505 1.081.493 1.678h-4.44zm15.932-6.121a3.398 3.398 0 002.566-.888 3.756 3.756 0 001.085-2.615h-2.368c-.049 1.135-.444 1.727-1.184 1.727s-1.086-.543-1.135-1.727h-2.368c.006.945.318 1.862.888 2.615a3.405 3.405 0 002.516.888zm-.936 6.662c-.198.395-.395.987-.691 1.727-.296.74-.493 1.282-.691 1.726h-.098c.148-2.22.197-3.848.197-4.933v-3.7h-3.552v12.087h4.539a76.18 76.18 0 011.233-2.812c.592-1.283.987-2.27 1.283-2.862.345-.74.789-1.825 1.282-3.206h.099c-.148 3.009-.197 4.736-.197 5.18v3.7h3.552V74.297H139l-2.368 5.18zm21.12 4.243v-9.423h-9.719v2.96a15.524 15.524 0 01-.542 3.947 9.715 9.715 0 01-1.184 2.516l-1.135.098.099 6.463h2.861l.148-3.897h7.647l.148 3.897h2.861l.148-6.512-1.332-.05zm-3.651-.099h-3.996a8.67 8.67 0 00.839-2.072c.279-1.013.428-2.057.444-3.108v-1.43h2.713v6.61zm-24.525-55.648c-1.776-8.93-8.93-15.689-16.577-20.03C103.182 2.417 91.292 0 80.044 0 68.796 0 56.906 2.467 47.088 8.042c-7.647 4.292-14.8 11.1-16.576 20.03a21.44 21.44 0 000 8.189c1.776 8.93 8.93 15.688 16.576 20.03 9.818 5.525 21.708 7.844 32.956 7.844 11.248 0 23.088-2.368 32.955-7.943 7.647-4.292 14.801-11.1 16.577-20.03a21.449 21.449 0 000-8.19zm-2.27 7.745c-1.628 8.24-8.387 14.505-15.441 18.5-9.473 5.329-21.017 7.648-31.821 7.648-10.804 0-22.349-2.171-31.821-7.549-7.055-3.996-13.814-10.261-15.442-18.5-.46-2.412-.46-4.89 0-7.302 1.628-8.239 8.387-14.504 15.442-18.5 9.472-5.328 21.017-7.746 31.82-7.746 10.805 0 22.349 2.27 31.822 7.647 7.054 3.996 13.813 10.262 15.441 18.5a19.45 19.45 0 010 7.302z" fill="#9EACB5"/><path d="M103.53 45.337l-12.58-26.69h8.387l-2.467-5.229H62.04l3.7 7.943-7.548 24.125h-3.108l-2.467 5.229H62.78l2.467-5.23h-3.503l2.22-7.153c1.36.49 2.798.723 4.243.69h.395c2.072-.049 3.897-.542 4.884-1.233l6.117 12.926h12.729l-2.516-5.378h-1.333l-12.58-26.69h3.65L94.65 50.715h12.729l-2.516-5.378h-1.333zM68.602 34.09h-.395a14.011 14.011 0 00-3.01.346l2.665-8.535.74 1.48 3.404 7.203a13.426 13.426 0 00-3.404-.494z" fill="#9EACB5"/></svg>